<?xml version="1.0" encoding="UTF-8" standalone="no" ?>
<!DOCTYPE svg PUBLIC "-//W3C//DTD SVG 1.1//EN" "http://www.w3.org/Graphics/SVG/1.1/DTD/svg11.dtd">
<svg xmlns="http://www.w3.org/2000/svg" xmlns:xlink="http://www.w3.org/1999/xlink" version="1.1" width="100" height="100" viewBox="0 0 513 513" xml:space="preserve">
<desc>Created with Fabric.js 4.6.0</desc>
<defs>
</defs>
<g transform="matrix(1 0 0 1 256.5 256.5)" id="za3z27wE0-km2NILvTYtL"  >
<g style="" vector-effect="non-scaling-stroke"   >
		<g transform="matrix(1 0 0 1 97.8 -19.42)" id="RXjypEcQFBkNFmHQyxCZe"  >
<path style="stroke: none; stroke-width: 1; stroke-dasharray: none; stroke-linecap: butt; stroke-dashoffset: 0; stroke-linejoin: miter; stroke-miterlimit: 4; fill: rgb(124,139,147); fill-rule: evenodd; opacity: 1;" vector-effect="non-scaling-stroke"  transform=" translate(-354.3, -237.08)" d="M 322 111.435 C 297.525 114.953 277.384 117.869 277.242 117.915 C 277.099 117.962 277.502 118.831 278.136 119.846 C 279.924 122.71 273.345 181.926 271.008 184 C 269.702 185.159 268.801 189.997 267.043 205.301 C 265.792 216.192 264.936 225.269 265.139 225.473 C 265.343 225.677 272.89 224.964 281.909 223.89 C 290.929 222.815 298.599 222.063 298.953 222.218 C 299.56 222.484 291.566 291.083 290.65 293.471 C 290.408 294.101 282.932 295.535 273.472 296.766 C 264.259 297.964 256.573 299.093 256.392 299.275 C 255.817 299.85 247.931 368.264 248.387 368.721 C 249.13 369.464 312.465 359.866 313.048 358.922 C 313.351 358.433 315.78 339.463 318.446 316.766 C 321.113 294.07 323.37 275.396 323.462 275.269 C 323.553 275.142 338.674 273.004 357.064 270.516 C 391.993 265.792 402.059 263.516 413.492 257.759 C 435.855 246.499 453.179 225.214 458.616 202.319 C 460.959 192.455 460.731 175.58 458.122 165.713 C 451.705 141.445 433.574 121.568 408.821 111.665 C 398.766 107.643 390.604 106.011 378 105.503 C 367.708 105.088 361.824 105.711 322 111.435 M 353.175 159.465 C 344.746 160.759 337.565 162.102 337.217 162.45 C 336.556 163.11 329.732 219.065 330.249 219.582 C 330.94 220.273 381.923 212.837 386.22 211.418 C 388.868 210.543 393.216 207.814 396.123 205.2 C 411.706 191.189 408.665 169.631 389.722 159.827 C 383.605 156.661 372.174 156.548 353.175 159.465" stroke-linecap="round" />
</g>
		<g transform="matrix(1 0 0 1 -30.69 -109.68)" id="ixOi0bg21lZYudft-wxor"  >
<path style="stroke: none; stroke-width: 1; stroke-dasharray: none; stroke-linecap: butt; stroke-dashoffset: 0; stroke-linejoin: miter; stroke-miterlimit: 4; fill: rgb(4,139,188); fill-rule: evenodd; opacity: 1;" vector-effect="non-scaling-stroke"  transform=" translate(-225.81, -146.82)" d="M 284 22.551 C 262.825 25.496 225.025 30.663 200.001 34.035 C 174.976 37.407 154.403 40.263 154.284 40.383 C 154.078 40.589 126 274.977 126 276.493 C 126 276.89 128.754 274.666 132.12 271.55 C 145.515 259.148 162.932 249.097 182.656 242.387 C 188.62 240.358 193.823 238.42 194.217 238.082 C 194.611 237.743 196.153 227.686 197.643 215.733 C 199.465 201.114 200.742 194 201.542 194 C 205.455 194 269.394 184.859 270.82 184.096 C 272.288 183.311 273.078 178.371 275.946 152.052 C 278.14 131.923 278.994 120.594 278.366 119.966 C 277.737 119.337 265.31 120.634 243.17 123.637 C 224.347 126.19 208.796 128.104 208.613 127.89 C 208.183 127.388 211.832 97.835 212.393 97.274 C 212.626 97.041 236.221 93.621 264.828 89.675 C 293.434 85.729 317.08 82.258 317.375 81.961 C 317.669 81.665 319.508 68.165 321.461 51.961 C 323.413 35.758 325.222 21.262 325.48 19.75 C 325.846 17.608 325.569 17.022 324.225 17.099 C 323.276 17.154 305.175 19.607 284 22.551" stroke-linecap="round" />
</g>
		<g transform="matrix(1 0 0 1 -44.21 99.81)" id="teNhEUxKq7OoC8VOJ9w-h"  >
<path style="stroke: none; stroke-width: 1; stroke-dasharray: none; stroke-linecap: butt; stroke-dashoffset: 0; stroke-linejoin: miter; stroke-miterlimit: 4; fill: rgb(116,52,107); fill-rule: evenodd; opacity: 1;" vector-effect="non-scaling-stroke"  transform=" translate(-212.29, -356.31)" d="M 284.5 223.538 C 279 224.257 270.675 225.123 266 225.463 C 249.889 226.632 220.547 231.315 205.5 235.118 C 184.945 240.313 161.391 250.206 147.6 259.437 C 136.618 266.787 123.39 279.319 117.831 287.64 C 95.978 320.349 90.868 361.963 103.921 400.922 C 115.977 436.909 142.065 467.85 172.291 482.015 C 186.954 488.887 194.315 490.451 212 490.456 C 225.084 490.459 232.956 489.703 262.5 485.603 C 281.75 482.931 297.827 480.453 298.226 480.096 C 298.626 479.74 301.483 458.084 304.576 431.974 C 307.719 405.439 310.673 384.206 311.273 383.834 C 311.863 383.468 315.34 382.868 319 382.5 C 328.736 381.522 328.472 381.932 326.973 370.172 C 326.268 364.643 325.338 359.547 324.905 358.846 C 324.273 357.824 322.777 357.813 317.309 358.787 C 306.994 360.626 251.944 368.613 239.837 370.028 C 233.973 370.713 228.616 371.619 227.932 372.042 C 226.944 372.652 226.941 374.723 227.914 382.155 C 229.764 396.279 229.024 395.301 237.247 394.475 L 244.3 393.767 L 243.609 400.633 C 242.271 413.936 242.023 414.747 239.139 415.303 C 237.687 415.583 230.265 416.613 222.644 417.591 C 206.607 419.65 200.188 419.025 190.45 414.457 C 182.734 410.837 170.636 398.797 166.192 390.314 C 151.408 362.095 160.5 328.339 186.537 314.779 C 199.656 307.947 209.936 305.833 274.678 296.652 C 283.026 295.469 290.098 294.254 290.393 293.952 C 290.688 293.651 292.742 278.351 294.959 259.952 C 297.175 241.554 299.154 225.488 299.356 224.25 C 299.789 221.596 299.472 221.581 284.5 223.538" stroke-linecap="round" />
</g>
</g>
</g>
</svg>